<svg width="680" height="575" viewBox="0 0 680 575" fill="none" xmlns="http://www.w3.org/2000/svg">
<path d="M342.061 422L230.25 355.741L417.431 263.807L508.537 317.642L342.061 422Z" fill="url(#paint0_linear_250_137)"/>
<rect width="350.344" height="186.353" rx="16" transform="matrix(0.866025 0.5 -0.866025 0.5 161.386 132.118)" fill="#8864E6"/>
<path d="M8.04009 223.224L7.62598 201.689L44.0683 226.122V248.899L8.04009 223.224Z" fill="#8864E6"/>
<path d="M457.014 307.704L458.671 282.856L419.329 308.946L414.774 331.308L457.014 307.704Z" fill="#8864E6"/>
<rect x="2.98023e-08" y="-0.5" width="351.344" height="187.353" rx="16.5" transform="matrix(0.866025 0.5 -0.866025 0.5 161.782 107.849)" fill="#EAC2FF" stroke="#EAC2FF"/>
<path opacity="0.4" d="M28 161L17 204L309 372L456.5 290L482 246L28 161Z" fill="url(#paint1_linear_250_137)"/>
<g filter="url(#filter0_b_250_137)">
<rect width="350.344" height="186.353" rx="8" transform="matrix(0.866025 0.5 -0.866025 0.5 182.092 70)" fill="white" fill-opacity="0.69"/>
</g>
<path fill-rule="evenodd" clip-rule="evenodd" d="M421.544 247.137C419.245 244.252 417.668 241.948 418.04 242.016C418.413 242.084 421.505 243.233 424.911 244.57C428.317 245.906 431.693 247.078 432.412 247.175C433.668 247.345 433.914 247.239 438.624 244.499L443.528 241.646L440.549 242.411C438.91 242.831 437.187 243.263 436.719 243.371C436.222 243.486 434.703 243.177 433.063 242.628C431.521 242.112 426.577 240.46 422.078 238.958L413.897 236.227L411.136 237.702L408.376 239.176L413.97 246.833C417.047 251.044 419.743 254.712 419.961 254.985C420.315 255.43 420.635 255.32 423.041 253.931L425.726 252.381L421.544 247.137ZM417.288 255.907C416.759 255.472 413.416 252.79 409.858 249.947C406.3 247.105 402.955 244.424 402.423 243.99L401.458 243.202L398.938 244.657C396.619 245.995 396.468 246.157 397.04 246.684C397.829 247.413 412.496 259.136 412.934 259.389C413.114 259.493 414.383 258.93 415.755 258.138L418.249 256.698L417.288 255.907ZM406.054 263.13C407.941 260.835 406.88 257.961 403.681 256.697C401.91 255.998 398.08 256.026 394.16 256.766C390.4 257.477 388.536 256.922 389.403 255.349C390.092 254.099 392.295 252.883 395.269 252.112L397.726 251.474L396.289 250.384C395.498 249.785 394.661 249.101 394.428 248.866C393.852 248.283 390.801 249.354 387.333 251.357C382.974 253.873 381.718 256.132 383.335 258.547C385.163 261.277 388.642 261.906 395.592 260.765C399.47 260.128 400.896 260.453 400.389 261.858C400.072 262.736 397.491 264.213 394.912 264.992C393.815 265.323 393.9 265.497 395.974 267.18C396.986 268.002 397.218 268.058 398.386 267.755C400.254 267.27 405.008 264.403 406.054 263.13ZM389.223 273.178C389.559 272.884 389.805 272.344 389.769 271.979C389.72 271.489 382.309 260.71 379.181 256.581C378.978 256.312 378.223 256.616 376.21 257.779L373.512 259.336L374.529 260.509L375.546 261.682L372.37 263.634L369.195 265.586L367.973 265.138C365.102 264.085 365.313 264.07 362.857 265.488L360.559 266.815L361.957 267.354C362.726 267.65 368.128 269.702 373.962 271.914L384.57 275.936L386.591 274.825C387.702 274.214 388.887 273.473 389.223 273.178ZM377.897 268.918L373.904 267.393L376.047 266.155C377.946 265.059 378.234 264.975 378.566 265.425C378.773 265.705 379.8 267.006 380.849 268.318C381.898 269.629 382.562 270.643 382.323 270.572C382.085 270.501 380.093 269.756 377.897 268.918Z" fill="#1B2685"/>
<g opacity="0.6">
<rect width="34.7859" height="45.6991" rx="5" transform="matrix(-0.866025 0.5 -0.866025 -0.5 212.424 128.095)" fill="#D7D374" stroke="#2F333C"/>
<rect width="23.8727" height="9.54906" rx="4.77453" transform="matrix(-0.866025 0.5 -0.866025 -0.5 191.75 121.616)" stroke="#2F333C"/>
<path d="M166.697 108.705L183.22 118.245" stroke="#2F333C"/>
<path d="M189.765 122.024L206.289 131.564" stroke="#2F333C"/>
<path d="M157.824 113.827L173.436 122.841" stroke="#2F333C"/>
<path d="M181.78 127.658L197.392 136.672" stroke="#2F333C"/>
<path d="M148.951 118.95L165.475 128.49" stroke="#2F333C"/>
<path d="M172.02 132.269L188.544 141.809" stroke="#2F333C"/>
</g>
<path d="M331.033 289.706C330.551 288.668 328.703 288.052 326.906 288.33L305.133 291.698C303.335 291.976 302.269 293.043 302.75 294.081L308.584 306.652C309.066 307.69 310.914 308.306 312.712 308.027L313.675 307.878C314.754 307.712 315.394 307.071 315.105 306.449L314.885 305.975C314.717 305.614 314.074 305.399 313.449 305.496C312.823 305.593 312.18 305.379 312.013 305.017L309.574 299.762C309.487 299.576 309.444 299.482 309.411 299.403C308.15 296.352 311.239 293.263 316.446 292.368C316.582 292.345 316.743 292.32 317.066 292.27L323.882 291.215C325.77 290.923 327.711 291.57 328.217 292.66L328.61 293.507C328.899 294.13 330.008 294.499 331.087 294.332C332.165 294.165 332.806 293.525 332.517 292.902L331.033 289.706Z" fill="#350069"/>
<path d="M334.61 297.413C334.321 296.79 333.212 296.421 332.133 296.588C331.055 296.755 330.415 297.395 330.704 298.017L331.483 299.697C332.203 301.248 330.609 302.841 327.924 303.257L320.441 304.414C319.362 304.581 318.722 305.222 319.011 305.844C319.3 306.467 320.409 306.837 321.488 306.67L334.484 304.659C336.282 304.381 337.349 303.314 336.867 302.276L334.61 297.413Z" fill="#350069" fill-opacity="0.5"/>
<path d="M534.104 487L448.4 434.2L621.339 349.261L679.496 405.887L534.104 487Z" fill="url(#paint2_linear_250_137)"/>
<path d="M437 426.539V412L454.983 416.591L449.243 431.13L437 426.539Z" fill="#8864E6"/>
<rect width="97.2294" height="172.174" rx="16" transform="matrix(0.866025 0.5 -0.866025 0.5 577.611 338.548)" fill="#8864E6"/>
<path d="M655.009 387.522V374.896L637.409 376.044L643.148 390.583L655.009 387.522Z" fill="#8864E6"/>
<rect x="2.98023e-08" y="-0.5" width="97.3078" height="173.174" rx="16.5" transform="matrix(0.866025 0.5 -0.866025 0.5 577.943 324.524)" fill="white" stroke="#EAC2FF"/>
<circle r="29.1657" transform="matrix(0.866025 0.5 -0.866025 0.5 572.378 361.494)" fill="black"/>
<path d="M607.889 361.074V352.681C605.511 358.067 600.755 368.964 600.755 369.467C600.755 369.971 601.595 370.237 602.014 370.306L607.889 361.074Z" fill="black"/>
<path d="M536.549 361.074V352.681C538.927 358.067 543.683 368.964 543.683 369.467C543.683 369.971 542.844 370.237 542.424 370.306L536.549 361.074Z" fill="black"/>
<circle r="29.1657" transform="matrix(0.866025 0.5 -0.866025 0.5 572.378 353.101)" fill="#404040"/>
<path d="M572.741 352.907L567.944 350.137L570.748 348.489L574.711 350.777C575.412 351.182 576.068 351.46 576.677 351.612C577.295 351.769 577.87 351.812 578.405 351.741C578.947 351.664 579.465 351.484 579.958 351.199C580.521 350.874 580.873 350.553 581.013 350.234C581.154 349.916 581.08 349.583 580.791 349.237C580.52 348.89 580.037 348.517 579.345 348.117L576.908 346.71L561.293 355.725L557.112 353.311L576.01 342.4L582.629 346.221C583.749 346.868 584.646 347.505 585.319 348.134C585.992 348.762 586.42 349.379 586.603 349.984C586.794 350.594 586.728 351.181 586.404 351.743C586.08 352.305 585.477 352.841 584.594 353.351C583.824 353.795 582.935 354.111 581.927 354.299C580.927 354.491 579.847 354.492 578.688 354.302C577.529 354.112 576.307 353.667 575.024 352.966L572.741 352.907ZM564.41 357.524L558.715 354.236L563.5 353.222L567.681 355.636C568.322 356.006 568.948 356.247 569.557 356.36C570.167 356.472 570.743 356.48 571.286 356.383C571.829 356.287 572.321 356.112 572.763 355.857C573.282 355.557 573.642 355.246 573.843 354.922C574.053 354.604 574.073 354.276 573.905 353.939C573.745 353.606 573.357 353.263 572.741 352.907L568.996 350.745L571.851 349.126L576.43 351.77L576.289 352.977C577.503 353.648 578.258 354.309 578.552 354.958C578.864 355.608 578.845 356.216 578.495 356.783C578.145 357.351 577.598 357.849 576.854 358.279C575.625 358.988 574.334 359.432 572.982 359.611C571.638 359.784 570.246 359.695 568.804 359.342C567.371 358.994 565.907 358.388 564.41 357.524Z" fill="white"/>
<g filter="url(#filter1_d_250_137)">
<path d="M572.741 352.068L567.944 349.298L570.748 347.65L574.711 349.938C575.412 350.343 576.068 350.621 576.677 350.773C577.295 350.93 577.87 350.973 578.405 350.901C578.947 350.825 579.465 350.644 579.958 350.36C580.521 350.035 580.873 349.713 581.013 349.395C581.154 349.077 581.08 348.744 580.791 348.398C580.52 348.051 580.037 347.678 579.345 347.278L576.908 345.871L561.293 354.886L557.112 352.471L576.01 341.561L582.629 345.382C583.749 346.029 584.646 346.666 585.319 347.295C585.992 347.923 586.42 348.54 586.603 349.145C586.794 349.755 586.728 350.342 586.404 350.904C586.08 351.466 585.477 352.002 584.594 352.512C583.824 352.956 582.935 353.272 581.927 353.459C580.927 353.652 579.847 353.653 578.688 353.463C577.529 353.273 576.307 352.828 575.024 352.127L572.741 352.068ZM564.41 356.685L558.715 353.397L563.5 352.383L567.681 354.797C568.322 355.167 568.948 355.408 569.557 355.52C570.167 355.633 570.743 355.641 571.286 355.544C571.829 355.448 572.321 355.273 572.763 355.018C573.282 354.718 573.642 354.406 573.843 354.083C574.053 353.764 574.073 353.437 573.905 353.099C573.745 352.767 573.357 352.423 572.741 352.068L568.996 349.906L571.851 348.287L576.43 350.93L576.289 352.138C577.503 352.809 578.258 353.469 578.552 354.119C578.864 354.769 578.845 355.377 578.495 355.944C578.145 356.512 577.598 357.01 576.854 357.44C575.625 358.149 574.334 358.593 572.982 358.772C571.638 358.945 570.246 358.855 568.804 358.503C567.371 358.155 565.907 357.549 564.41 356.685Z" fill="white"/>
</g>
<circle r="21.101" transform="matrix(0.866025 0.5 -0.866025 0.5 572.377 353.222)" stroke="black" stroke-width="4"/>
<circle r="29.1657" transform="matrix(0.866025 0.5 -0.866025 0.5 568.552 353.842)" fill="black"/>
<path d="M604.063 353.422V345.029C601.685 350.415 596.929 361.312 596.929 361.815C596.929 362.319 597.769 362.584 598.188 362.654L604.063 353.422Z" fill="black"/>
<path d="M532.723 353.422V345.029C535.101 350.415 539.857 361.312 539.857 361.815C539.857 362.319 539.017 362.584 538.598 362.654L532.723 353.422Z" fill="black"/>
<circle r="29.1657" transform="matrix(0.866025 0.5 -0.866025 0.5 568.552 345.449)" fill="#404040"/>
<path d="M568.915 345.255L564.118 342.485L566.922 340.837L570.885 343.125C571.586 343.53 572.242 343.808 572.851 343.96C573.468 344.117 574.044 344.16 574.578 344.088C575.121 344.012 575.639 343.832 576.132 343.547C576.695 343.222 577.046 342.9 577.187 342.582C577.328 342.264 577.254 341.931 576.965 341.585C576.694 341.238 576.211 340.865 575.519 340.465L573.082 339.058L557.467 348.073L553.286 345.658L572.184 334.748L578.803 338.569C579.923 339.216 580.819 339.853 581.492 340.482C582.166 341.11 582.594 341.727 582.777 342.332C582.968 342.942 582.902 343.529 582.578 344.091C582.254 344.653 581.651 345.189 580.768 345.699C579.998 346.143 579.109 346.459 578.1 346.646C577.101 346.839 576.021 346.84 574.862 346.65C573.702 346.46 572.481 346.015 571.198 345.314L568.915 345.255ZM560.584 349.872L554.889 346.584L559.673 345.57L563.855 347.984C564.496 348.354 565.122 348.595 565.731 348.707C566.341 348.82 566.917 348.828 567.46 348.731C568.003 348.635 568.495 348.46 568.936 348.205C569.456 347.905 569.816 347.593 570.017 347.27C570.227 346.951 570.247 346.624 570.079 346.286C569.919 345.954 569.531 345.61 568.915 345.255L565.17 343.093L568.025 341.474L572.604 344.117L572.463 345.325C573.677 345.996 574.432 346.656 574.726 347.306C575.038 347.956 575.018 348.564 574.669 349.131C574.319 349.699 573.772 350.197 573.028 350.627C571.799 351.336 570.508 351.78 569.156 351.959C567.812 352.132 566.42 352.042 564.978 351.69C563.545 351.342 562.081 350.736 560.584 349.872Z" fill="white"/>
<g filter="url(#filter2_d_250_137)">
<path d="M568.915 344.416L564.118 341.646L566.922 339.997L570.885 342.286C571.586 342.691 572.242 342.969 572.851 343.121C573.468 343.278 574.044 343.32 574.578 343.249C575.121 343.173 575.639 342.992 576.132 342.707C576.695 342.383 577.046 342.061 577.187 341.743C577.328 341.424 577.254 341.092 576.965 340.745C576.694 340.399 576.211 340.025 575.519 339.625L573.082 338.218L557.467 347.233L553.286 344.819L572.184 333.908L578.803 337.729C579.923 338.376 580.819 339.014 581.492 339.642C582.166 340.271 582.594 340.888 582.777 341.493C582.968 342.103 582.902 342.689 582.578 343.252C582.254 343.814 581.651 344.35 580.768 344.859C579.998 345.304 579.109 345.62 578.1 345.807C577.101 345.999 576.021 346 574.862 345.811C573.702 345.621 572.481 345.176 571.198 344.475L568.915 344.416ZM560.584 349.033L554.889 345.745L559.673 344.73L563.855 347.144C564.496 347.515 565.122 347.756 565.731 347.868C566.341 347.98 566.917 347.988 567.46 347.892C568.003 347.796 568.495 347.62 568.936 347.366C569.456 347.066 569.816 346.754 570.017 346.431C570.227 346.112 570.247 345.784 570.079 345.447C569.919 345.115 569.531 344.771 568.915 344.416L565.17 342.253L568.025 340.634L572.604 343.278L572.463 344.485C573.677 345.157 574.432 345.817 574.726 346.467C575.038 347.116 575.018 347.725 574.669 348.292C574.319 348.859 573.772 349.358 573.028 349.787C571.799 350.497 570.508 350.941 569.156 351.119C567.812 351.293 566.42 351.203 564.978 350.85C563.545 350.503 562.081 349.897 560.584 349.033Z" fill="white"/>
</g>
<circle r="21.101" transform="matrix(0.866025 0.5 -0.866025 0.5 568.552 345.57)" stroke="black" stroke-width="4"/>
<circle r="29.1657" transform="matrix(0.866025 0.5 -0.866025 0.5 560.134 348.559)" fill="black"/>
<path d="M595.646 348.139V339.746C593.268 345.132 588.512 356.029 588.512 356.532C588.512 357.036 589.351 357.301 589.771 357.371L595.646 348.139Z" fill="black"/>
<path d="M524.305 348.139V339.746C526.683 345.132 531.439 356.029 531.439 356.532C531.439 357.036 530.6 357.301 530.18 357.371L524.305 348.139Z" fill="black"/>
<circle r="29.1657" transform="matrix(0.866025 0.5 -0.866025 0.5 560.134 340.166)" fill="#404040"/>
<circle r="21.101" transform="matrix(0.866025 0.5 -0.866025 0.5 560.134 340.287)" stroke="black" stroke-width="4"/>
<path d="M574.499 340.105L560.885 332.245C560.594 332.077 560.172 331.995 559.759 332.028L556.473 332.299C555.393 332.391 554.952 333.155 555.721 333.6L569.335 341.46C569.626 341.628 570.048 341.709 570.462 341.676L573.748 341.405C574.827 341.313 575.268 340.549 574.499 340.105Z" fill="url(#paint3_linear_250_137)"/>
<path d="M553.374 334.955L566.988 342.815C567.279 342.983 567.42 343.227 567.363 343.465L566.894 345.363C566.734 345.986 565.411 346.241 564.641 345.796L551.027 337.936C550.736 337.768 550.595 337.525 550.652 337.286L551.121 335.389C551.281 334.765 552.605 334.511 553.374 334.955Z" fill="url(#paint4_linear_250_137)"/>
<path d="M562.294 347.151L548.68 339.291C548.389 339.123 547.967 339.042 547.554 339.075L544.268 339.346C543.188 339.438 542.747 340.202 543.516 340.647L557.13 348.506C557.421 348.674 557.843 348.756 558.256 348.723L561.542 348.452C562.622 348.36 563.063 347.596 562.294 347.151Z" fill="url(#paint5_linear_250_137)"/>
<g filter="url(#filter3_d_250_137)">
<path d="M574.499 339.685L560.885 331.825C560.594 331.657 560.172 331.576 559.759 331.609L556.473 331.88C555.393 331.972 554.952 332.736 555.721 333.181L569.335 341.04C569.626 341.208 570.048 341.29 570.462 341.257L573.748 340.986C574.827 340.894 575.268 340.13 574.499 339.685Z" fill="url(#paint6_linear_250_137)"/>
</g>
<g filter="url(#filter4_d_250_137)">
<path d="M553.374 334.536L566.988 342.395C567.279 342.563 567.42 342.807 567.363 343.046L566.894 344.943C566.734 345.566 565.411 345.821 564.641 345.376L551.027 337.517C550.736 337.349 550.595 337.105 550.652 336.866L551.121 334.969C551.281 334.346 552.605 334.091 553.374 334.536Z" fill="url(#paint7_linear_250_137)"/>
</g>
<g filter="url(#filter5_d_250_137)">
<path d="M562.294 346.731L548.68 338.872C548.389 338.704 547.967 338.622 547.554 338.655L544.268 338.926C543.188 339.018 542.747 339.782 543.516 340.227L557.13 348.087C557.421 348.255 557.843 348.336 558.256 348.303L561.542 348.032C562.622 347.94 563.063 347.176 562.294 346.731Z" fill="url(#paint8_linear_250_137)"/>
</g>
<circle r="39.0383" transform="matrix(0.866025 0.5 -0.866025 0.5 510.887 425.77)" fill="#D88611"/>
<path d="M558.42 425.209V413.975C555.237 421.183 548.871 435.769 548.871 436.443C548.871 437.117 549.994 437.472 550.556 437.566L558.42 425.209Z" fill="#D88611"/>
<path d="M462.931 425.209V413.975C466.114 421.183 472.479 435.769 472.479 436.443C472.479 437.117 471.356 437.472 470.794 437.566L462.931 425.209Z" fill="#D88611"/>
<circle r="39.0383" transform="matrix(0.866025 0.5 -0.866025 0.5 510.887 414.536)" fill="#E8C466"/>
<circle r="28.9206" transform="matrix(0.866025 0.5 -0.866025 0.5 510.887 414.698)" stroke="#D88611" stroke-width="4"/>
<path d="M511.374 414.277L504.953 410.57L508.706 408.363L514.011 411.426C514.95 411.968 515.827 412.34 516.642 412.544C517.469 412.754 518.24 412.811 518.955 412.715C519.681 412.613 520.374 412.371 521.034 411.99C521.787 411.556 522.258 411.125 522.447 410.699C522.635 410.273 522.536 409.828 522.149 409.364C521.786 408.9 521.14 408.4 520.213 407.865L516.951 405.982L496.051 418.048L490.454 414.817L515.75 400.213L524.609 405.327C526.108 406.193 527.308 407.047 528.209 407.888C529.11 408.729 529.683 409.554 529.928 410.365C530.184 411.181 530.096 411.966 529.662 412.719C529.228 413.471 528.421 414.189 527.24 414.871C526.209 415.466 525.018 415.889 523.669 416.139C522.331 416.396 520.886 416.398 519.334 416.144C517.782 415.89 516.148 415.294 514.43 414.356L511.374 414.277ZM500.223 420.457L492.6 416.056L499.004 414.698L504.601 417.929C505.46 418.425 506.297 418.748 507.113 418.898C507.929 419.048 508.7 419.059 509.427 418.93C510.153 418.801 510.812 418.566 511.403 418.225C512.098 417.824 512.58 417.407 512.849 416.974C513.13 416.548 513.157 416.109 512.932 415.657C512.717 415.213 512.198 414.753 511.374 414.277L506.361 411.382L510.183 409.216L516.312 412.754L516.123 414.37C517.748 415.269 518.758 416.153 519.152 417.022C519.569 417.892 519.544 418.706 519.075 419.465C518.607 420.225 517.875 420.892 516.879 421.467C515.234 422.417 513.507 423.011 511.697 423.25C509.898 423.482 508.034 423.362 506.105 422.89C504.187 422.424 502.226 421.613 500.223 420.457Z" fill="white"/>
<g filter="url(#filter6_d_250_137)">
<path d="M511.374 413.154L504.953 409.446L508.706 407.24L514.011 410.303C514.95 410.845 515.827 411.217 516.642 411.42C517.469 411.63 518.24 411.688 518.955 411.592C519.681 411.49 520.374 411.248 521.034 410.867C521.787 410.432 522.258 410.002 522.447 409.576C522.635 409.15 522.536 408.705 522.149 408.241C521.786 407.777 521.14 407.277 520.213 406.742L516.951 404.858L496.051 416.925L490.454 413.694L515.75 399.089L524.609 404.204C526.108 405.07 527.308 405.923 528.209 406.764C529.11 407.606 529.683 408.431 529.928 409.241C530.184 410.058 530.096 410.843 529.662 411.595C529.228 412.348 528.421 413.065 527.24 413.747C526.209 414.343 525.018 414.765 523.669 415.016C522.331 415.273 520.886 415.275 519.334 415.021C517.782 414.767 516.148 414.171 514.43 413.233L511.374 413.154ZM500.223 419.334L492.6 414.933L499.004 413.575L504.601 416.806C505.46 417.302 506.297 417.625 507.113 417.775C507.929 417.925 508.7 417.935 509.427 417.807C510.153 417.678 510.812 417.443 511.403 417.102C512.098 416.701 512.58 416.284 512.849 415.851C513.13 415.424 513.157 414.985 512.932 414.534C512.717 414.09 512.198 413.629 511.374 413.154L506.361 410.259L510.183 408.092L516.312 411.631L516.123 413.247C517.748 414.145 518.758 415.029 519.152 415.899C519.569 416.768 519.544 417.583 519.075 418.342C518.607 419.101 517.875 419.769 516.879 420.344C515.234 421.293 513.507 421.887 511.697 422.126C509.898 422.358 508.034 422.239 506.105 421.767C504.187 421.301 502.226 420.49 500.223 419.334Z" fill="white"/>
</g>
<circle r="39.0383" transform="matrix(0.866025 0.5 -0.866025 0.5 522.122 409.481)" fill="#D88611"/>
<path d="M569.654 408.919V397.685C566.471 404.894 560.105 419.479 560.105 420.153C560.105 420.827 561.229 421.183 561.79 421.277L569.654 408.919Z" fill="#D88611"/>
<path d="M474.165 408.919V397.685C477.348 404.894 483.714 419.479 483.714 420.153C483.714 420.827 482.59 421.183 482.029 421.277L474.165 408.919Z" fill="#D88611"/>
<circle r="39.0383" transform="matrix(0.866025 0.5 -0.866025 0.5 522.122 398.247)" fill="#E8C466"/>
<circle r="28.9206" transform="matrix(0.866025 0.5 -0.866025 0.5 522.122 398.409)" stroke="#D88611" stroke-width="4"/>
<path fill-rule="evenodd" clip-rule="evenodd" d="M538.698 400.58C541.717 398.465 539.953 396.152 536.63 393.866L541.265 391.189L538.442 389.56L533.929 392.166C533.188 391.738 532.416 391.309 531.647 390.883L536.191 388.26L533.371 386.632L528.736 389.307C528.112 388.961 527.501 388.621 526.916 388.284L526.93 388.275L523.04 386.028L520.027 387.768C520.027 387.768 522.15 388.948 522.077 388.95C523.22 389.61 522.929 390.208 522.464 390.601L517.184 393.65C517.262 393.696 517.362 393.757 517.462 393.833L517.165 393.662L509.766 397.932C509.356 398.111 508.571 398.32 507.771 397.86C507.775 397.899 505.721 396.675 505.721 396.675L501.79 398.297L505.463 400.418C505.877 400.657 506.283 400.897 506.685 401.134L506.686 401.135C506.946 401.288 507.204 401.44 507.461 401.591L502.773 404.298L505.591 405.926L510.231 403.248C510.988 403.704 511.73 404.14 512.462 404.562L507.844 407.227L510.666 408.855L515.346 406.154C520.362 408.735 524.878 409.963 529.742 407.629C533.661 405.75 533.576 403.852 531.53 401.924C534 402.386 536.491 402.129 538.697 400.58L538.698 400.58ZM524.725 404.088C521.51 405.945 516.529 402.987 514.252 401.635L514.251 401.635C514.048 401.513 513.865 401.405 513.708 401.315L519.92 397.729C520.112 397.84 520.351 397.971 520.622 398.12L520.622 398.121C523.045 399.455 528.011 402.19 524.726 404.088L524.725 404.088ZM523.222 396.359C525.119 397.49 529.253 399.957 532.175 398.27C535.164 396.545 531.013 394.272 528.986 393.162C528.758 393.038 528.557 392.928 528.396 392.835L522.762 396.087C522.895 396.164 523.049 396.256 523.222 396.359Z" fill="white"/>
<g filter="url(#filter7_d_250_137)">
<path fill-rule="evenodd" clip-rule="evenodd" d="M538.698 400.018C541.717 397.903 539.953 395.591 536.63 393.304L541.265 390.628L538.442 388.999L533.929 391.604C533.188 391.177 532.416 390.747 531.647 390.321L536.191 387.698L533.371 386.07L528.736 388.745C528.112 388.4 527.501 388.06 526.916 387.722L526.93 387.714L523.04 385.466L520.027 387.206C520.027 387.206 522.15 388.386 522.077 388.389C523.22 389.049 522.929 389.647 522.464 390.039L517.184 393.088C517.262 393.134 517.362 393.195 517.462 393.272L517.165 393.1L509.766 397.371C509.356 397.549 508.571 397.758 507.771 397.298C507.775 397.337 505.721 396.114 505.721 396.114L501.79 397.736L505.463 399.856C505.877 400.096 506.283 400.335 506.685 400.572L506.685 400.573L506.686 400.573C506.946 400.726 507.204 400.879 507.461 401.029L502.773 403.737L505.591 405.364L510.231 402.687C510.988 403.142 511.73 403.578 512.462 404L507.844 406.665L510.666 408.294L515.346 405.592C520.362 408.174 524.878 409.401 529.742 407.067C533.661 405.189 533.576 403.291 531.53 401.362C534 401.825 536.491 401.568 538.697 400.018L538.698 400.018ZM524.725 403.526C521.51 405.383 516.529 402.426 514.252 401.073L514.251 401.073C514.048 400.952 513.865 400.844 513.708 400.753L519.92 397.168C520.112 397.279 520.351 397.41 520.622 397.559L520.622 397.559C523.045 398.894 528.011 401.628 524.726 403.527L524.725 403.526ZM523.222 395.797C525.119 396.929 529.253 399.395 532.175 397.709C535.164 395.984 531.013 393.711 528.986 392.601C528.758 392.476 528.557 392.366 528.396 392.273L522.762 395.526C522.895 395.602 523.049 395.694 523.222 395.797Z" fill="white"/>
</g>
<path d="M579.942 111.296L491.403 162.5L468.29 147.566L460.467 142.587L556.118 93.873L579.942 111.296Z" fill="url(#paint9_linear_250_137)"/>
<path d="M566.718 104.896L565.651 96.0066L551.072 111.297L554.272 113.43L566.718 104.896Z" fill="#8A66E4"/>
<path d="M459.688 140.098L458.977 130.853L476.66 143.597L474.039 146.412L459.688 140.098Z" fill="#8A66E4"/>
<rect width="32.89" height="104.374" rx="16" transform="matrix(0.866025 0.5 -0.866025 0.5 544.13 88.0029)" fill="#8A66E4"/>
<path d="M545.027 117.341V107.741L532.582 114.497V126.231L545.027 117.341Z" fill="#8A66E4"/>
<rect width="34.1011" height="102.802" rx="16" transform="matrix(0.866025 0.5 -0.866025 0.5 542.029 79.2383)" fill="white"/>
<rect x="5.96046e-08" y="-1" width="15.7213" height="89.8991" rx="7.86063" transform="matrix(0.866025 0.5 -0.866025 0.5 543.834 86.7197)" fill="#8A66E4" stroke="#EAC2FF" stroke-width="2"/>
<path d="M549.65 7.82273L539.693 3.2002L536.849 5.33367L533.293 17.4234C536.493 18.1346 543.036 19.5569 543.605 19.5569C544.174 19.5569 549.057 14.1046 551.428 11.3785L549.65 7.82273Z" fill="#8A66E4"/>
<path d="M472.411 52.8916C472.411 46.2642 477.064 38.2053 482.804 34.8916L532.846 5.99991C538.585 2.6862 543.238 5.3725 543.238 11.9999L543.238 90.0245L472.411 130.916L472.411 52.8916Z" fill="#8A66E4"/>
<path d="M472.411 52.8916C472.411 46.2642 477.064 38.2053 482.804 34.8916L532.846 5.99991C538.585 2.6862 543.238 5.3725 543.238 11.9999L543.238 90.0245L472.411 130.916L472.411 52.8916Z" fill="#8A66E4"/>
<path d="M480.945 57.0388C480.945 50.4114 485.598 42.3525 491.338 39.0388L541.379 10.1471C547.119 6.83342 551.772 9.51972 551.772 16.1471L551.772 97.7844L480.945 138.676L480.945 57.0388Z" fill="white"/>
<rect x="5.96046e-08" y="-1" width="15.7213" height="89.8991" rx="7.86063" transform="matrix(0.866025 0.5 -0.866025 0.5 543.834 86.7197)" stroke="#EAC2FF" stroke-width="2"/>
<path d="M472.411 116.562L547.516 73.1998L547.516 87.5546L472.411 130.916L472.411 116.562Z" fill="#8A66E4"/>
<path d="M480.945 103.589L551.772 62.6969L551.772 91.5505L480.945 132.442L480.945 103.589Z" fill="white"/>
<circle opacity="0.2" r="20.5294" transform="matrix(0.866025 -0.5 2.20305e-08 1 515.514 66.063)" fill="#33C581"/>
<path d="M518.984 56.827L520.279 59.0703C520.453 59.3832 520.922 59.5052 521.317 59.362L523.659 58.4551C525.156 57.877 525.506 58.9271 524.431 60.7992L522.603 63.9654C522.3 64.4904 522.125 65.2806 522.226 65.7208L522.75 68.0278C523.163 69.8469 522.208 71.2046 520.637 71.0296L518.442 70.7909C518.047 70.7432 517.385 71.125 516.99 71.6288L514.795 74.4025C513.224 76.3807 512.269 76.1368 512.682 73.8404L513.206 70.9288C513.288 70.3719 513.114 69.7833 512.811 69.6082L510.983 68.5529C509.908 67.9324 510.257 66.4792 511.754 65.3178L514.097 63.5199C514.492 63.2176 514.96 62.5441 515.135 62.0296L516.43 58.2907C517.137 56.2701 518.276 55.6125 518.984 56.827Z" fill="#33C581"/>
<path d="M512.195 61.3191L506.684 64.5011C506.307 64.7186 505.995 64.5383 505.995 64.1034C505.995 63.6685 506.307 63.1275 506.684 62.9101L512.195 59.728C512.572 59.5106 512.884 59.6909 512.884 60.1258C512.884 60.5607 512.572 61.1016 512.195 61.3191Z" fill="#33C581"/>
<path d="M509.44 77.7597L506.684 79.3507C506.307 79.5682 505.995 79.3879 505.995 78.953C505.995 78.5181 506.307 77.9772 506.684 77.7597L509.44 76.1687C509.816 75.9512 510.128 76.1316 510.128 76.5664C510.128 77.0013 509.816 77.5423 509.44 77.7597Z" fill="#33C581"/>
<path d="M507.602 71.3956L506.684 71.9259C506.307 72.1434 505.995 71.9631 505.995 71.5282C505.995 71.0933 506.307 70.5523 506.684 70.3349L507.602 69.8046C507.979 69.5871 508.291 69.7674 508.291 70.2023C508.291 70.6372 507.979 71.1782 507.602 71.3956Z" fill="#33C581"/>
<g filter="url(#filter8_d_250_137)">
<path d="M518.984 56.3179L520.279 58.5613C520.453 58.8742 520.922 58.9962 521.317 58.853L523.659 57.9461C525.156 57.368 525.506 58.4181 524.431 60.2902L522.603 63.4564C522.3 63.9814 522.125 64.7716 522.226 65.2118L522.75 67.5188C523.163 69.3379 522.208 70.6955 520.637 70.5205L518.442 70.2819C518.047 70.2341 517.385 70.616 516.99 71.1198L514.795 73.8935C513.224 75.8717 512.269 75.6277 512.682 73.3313L513.206 70.4198C513.288 69.8629 513.114 69.2742 512.811 69.0992L510.983 68.0438C509.908 67.4233 510.257 65.9702 511.754 64.8087L514.097 63.0109C514.492 62.7086 514.96 62.035 515.135 61.5206L516.43 57.7817C517.137 55.7611 518.276 55.1034 518.984 56.3179Z" fill="#33C581"/>
<path d="M512.195 60.81L506.684 63.9921C506.307 64.2095 505.995 64.0292 505.995 63.5943C505.995 63.1595 506.307 62.6185 506.684 62.4011L512.195 59.219C512.572 59.0016 512.884 59.1819 512.884 59.6168C512.884 60.0516 512.572 60.5926 512.195 60.81Z" fill="#33C581"/>
<path d="M509.44 77.2507L506.684 78.8417C506.307 79.0591 505.995 78.8788 505.995 78.444C505.995 78.0091 506.307 77.4681 506.684 77.2507L509.44 75.6597C509.816 75.4422 510.128 75.6225 510.128 76.0574C510.128 76.4923 509.816 77.0332 509.44 77.2507Z" fill="#33C581"/>
<path d="M507.602 70.8866L506.684 71.4169C506.307 71.6343 505.995 71.454 505.995 71.0191C505.995 70.5843 506.307 70.0433 506.684 69.8259L507.602 69.2955C507.979 69.0781 508.291 69.2584 508.291 69.6933C508.291 70.1282 507.979 70.6691 507.602 70.8866Z" fill="#33C581"/>
</g>
<rect width="41.0457" height="4.12612" rx="2.06306" transform="matrix(0.866025 -0.5 2.20305e-08 1 500.58 100.884)" fill="#E3E3EE"/>
<rect width="64.8729" height="4.17915" rx="2.08957" transform="matrix(0.866025 -0.5 2.20305e-08 1 488.49 115.606)" fill="#F2F2F9"/>
<rect width="55.0188" height="4.17915" rx="2.08957" transform="matrix(0.866025 -0.5 2.20305e-08 1 494.179 118.047)" fill="#F2F2F9"/>
<path d="M225.481 575L130.591 528.418L225.481 443.017L388.519 528.418L225.481 575Z" fill="url(#paint10_linear_250_137)"/>
<rect width="131.121" height="131.121" rx="16" transform="matrix(0.866025 0.5 -0.866025 0.5 182.035 428.352)" fill="#8864E6"/>
<path d="M75.3818 494.775V482.698L104.712 487.442L112.044 508.577H98.2417L75.3818 494.775Z" fill="#8864E6"/>
<path d="M288.453 494.343V483.129L260.418 504.264L253.948 512.89L288.453 494.343Z" fill="#8864E6"/>
<rect width="131.121" height="131.121" rx="16" transform="matrix(0.866025 0.5 -0.866025 0.5 182.035 418)" fill="white"/>
<path d="M208.342 465.352C207.317 463.144 203.386 461.834 199.561 462.425L153.242 469.591C149.418 470.182 147.148 472.452 148.173 474.66L160.584 501.403C161.609 503.611 165.54 504.921 169.365 504.33L171.414 504.013C173.709 503.658 175.07 502.296 174.456 500.971L173.988 499.963C173.631 499.195 172.263 498.739 170.933 498.945C169.602 499.15 168.234 498.694 167.877 497.926L162.689 486.746C162.504 486.349 162.412 486.151 162.343 485.982C159.66 479.49 166.231 472.92 177.309 471.015C177.598 470.965 177.941 470.912 178.628 470.806L193.129 468.563C197.146 467.941 201.275 469.318 202.352 471.637L203.188 473.438C203.803 474.763 206.161 475.549 208.456 475.194C210.751 474.839 212.113 473.477 211.498 472.152L208.342 465.352Z" fill="#350069"/>
<path d="M215.952 481.749C215.337 480.424 212.978 479.637 210.683 479.992C208.388 480.347 207.026 481.709 207.641 483.034L209.3 486.608C210.831 489.906 207.44 493.297 201.727 494.181L185.808 496.643C183.513 496.998 182.151 498.36 182.766 499.685C183.381 501.01 185.74 501.796 188.035 501.441L215.683 497.164C219.508 496.572 221.778 494.303 220.753 492.094L215.952 481.749Z" fill="#350069" fill-opacity="0.5"/>
<defs>
<filter id="filter0_b_250_137" x="-175.236" y="-127.657" width="856.676" height="663.662" filterUnits="userSpaceOnUse" color-interpolation-filters="sRGB">
<feFlood flood-opacity="0" result="BackgroundImageFix"/>
<feGaussianBlur in="BackgroundImage" stdDeviation="100"/>
<feComposite in2="SourceAlpha" operator="in" result="effect1_backgroundBlur_250_137"/>
<feBlend mode="normal" in="SourceGraphic" in2="effect1_backgroundBlur_250_137" result="shape"/>
</filter>
<filter id="filter1_d_250_137" x="553.112" y="341.561" width="37.5979" height="25.2969" filterUnits="userSpaceOnUse" color-interpolation-filters="sRGB">
<feFlood flood-opacity="0" result="BackgroundImageFix"/>
<feColorMatrix in="SourceAlpha" type="matrix" values="0 0 0 0 0 0 0 0 0 0 0 0 0 0 0 0 0 0 127 0" result="hardAlpha"/>
<feOffset dy="4"/>
<feGaussianBlur stdDeviation="2"/>
<feComposite in2="hardAlpha" operator="out"/>
<feColorMatrix type="matrix" values="0 0 0 0 0 0 0 0 0 0 0 0 0 0 0 0 0 0 0.25 0"/>
<feBlend mode="normal" in2="BackgroundImageFix" result="effect1_dropShadow_250_137"/>
<feBlend mode="normal" in="SourceGraphic" in2="effect1_dropShadow_250_137" result="shape"/>
</filter>
<filter id="filter2_d_250_137" x="549.286" y="333.908" width="37.5979" height="25.2969" filterUnits="userSpaceOnUse" color-interpolation-filters="sRGB">
<feFlood flood-opacity="0" result="BackgroundImageFix"/>
<feColorMatrix in="SourceAlpha" type="matrix" values="0 0 0 0 0 0 0 0 0 0 0 0 0 0 0 0 0 0 127 0" result="hardAlpha"/>
<feOffset dy="4"/>
<feGaussianBlur stdDeviation="2"/>
<feComposite in2="hardAlpha" operator="out"/>
<feColorMatrix type="matrix" values="0 0 0 0 0 0 0 0 0 0 0 0 0 0 0 0 0 0 0.25 0"/>
<feBlend mode="normal" in2="BackgroundImageFix" result="effect1_dropShadow_250_137"/>
<feBlend mode="normal" in="SourceGraphic" in2="effect1_dropShadow_250_137" result="shape"/>
</filter>
<filter id="filter3_d_250_137" x="551.334" y="331.602" width="27.5527" height="17.6626" filterUnits="userSpaceOnUse" color-interpolation-filters="sRGB">
<feFlood flood-opacity="0" result="BackgroundImageFix"/>
<feColorMatrix in="SourceAlpha" type="matrix" values="0 0 0 0 0 0 0 0 0 0 0 0 0 0 0 0 0 0 127 0" result="hardAlpha"/>
<feOffset dy="4"/>
<feGaussianBlur stdDeviation="2"/>
<feComposite in2="hardAlpha" operator="out"/>
<feColorMatrix type="matrix" values="0 0 0 0 0 0 0 0 0 0 0 0 0 0 0 0 0 0 0.25 0"/>
<feBlend mode="normal" in2="BackgroundImageFix" result="effect1_dropShadow_250_137"/>
<feBlend mode="normal" in="SourceGraphic" in2="effect1_dropShadow_250_137" result="shape"/>
</filter>
<filter id="filter4_d_250_137" x="546.639" y="334.312" width="24.7361" height="19.2888" filterUnits="userSpaceOnUse" color-interpolation-filters="sRGB">
<feFlood flood-opacity="0" result="BackgroundImageFix"/>
<feColorMatrix in="SourceAlpha" type="matrix" values="0 0 0 0 0 0 0 0 0 0 0 0 0 0 0 0 0 0 127 0" result="hardAlpha"/>
<feOffset dy="4"/>
<feGaussianBlur stdDeviation="2"/>
<feComposite in2="hardAlpha" operator="out"/>
<feColorMatrix type="matrix" values="0 0 0 0 0 0 0 0 0 0 0 0 0 0 0 0 0 0 0.25 0"/>
<feBlend mode="normal" in2="BackgroundImageFix" result="effect1_dropShadow_250_137"/>
<feBlend mode="normal" in="SourceGraphic" in2="effect1_dropShadow_250_137" result="shape"/>
</filter>
<filter id="filter5_d_250_137" x="539.129" y="338.648" width="27.5527" height="17.6626" filterUnits="userSpaceOnUse" color-interpolation-filters="sRGB">
<feFlood flood-opacity="0" result="BackgroundImageFix"/>
<feColorMatrix in="SourceAlpha" type="matrix" values="0 0 0 0 0 0 0 0 0 0 0 0 0 0 0 0 0 0 127 0" result="hardAlpha"/>
<feOffset dy="4"/>
<feGaussianBlur stdDeviation="2"/>
<feComposite in2="hardAlpha" operator="out"/>
<feColorMatrix type="matrix" values="0 0 0 0 0 0 0 0 0 0 0 0 0 0 0 0 0 0 0.25 0"/>
<feBlend mode="normal" in2="BackgroundImageFix" result="effect1_dropShadow_250_137"/>
<feBlend mode="normal" in="SourceGraphic" in2="effect1_dropShadow_250_137" result="shape"/>
</filter>
<filter id="filter6_d_250_137" x="486.454" y="399.089" width="47.6169" height="31.1519" filterUnits="userSpaceOnUse" color-interpolation-filters="sRGB">
<feFlood flood-opacity="0" result="BackgroundImageFix"/>
<feColorMatrix in="SourceAlpha" type="matrix" values="0 0 0 0 0 0 0 0 0 0 0 0 0 0 0 0 0 0 127 0" result="hardAlpha"/>
<feOffset dy="4"/>
<feGaussianBlur stdDeviation="2"/>
<feComposite in2="hardAlpha" operator="out"/>
<feColorMatrix type="matrix" values="0 0 0 0 0 0 0 0 0 0 0 0 0 0 0 0 0 0 0.25 0"/>
<feBlend mode="normal" in2="BackgroundImageFix" result="effect1_dropShadow_250_137"/>
<feBlend mode="normal" in="SourceGraphic" in2="effect1_dropShadow_250_137" result="shape"/>
</filter>
<filter id="filter7_d_250_137" x="497.79" y="385.466" width="47.4751" height="30.8408" filterUnits="userSpaceOnUse" color-interpolation-filters="sRGB">
<feFlood flood-opacity="0" result="BackgroundImageFix"/>
<feColorMatrix in="SourceAlpha" type="matrix" values="0 0 0 0 0 0 0 0 0 0 0 0 0 0 0 0 0 0 127 0" result="hardAlpha"/>
<feOffset dy="4"/>
<feGaussianBlur stdDeviation="2"/>
<feComposite in2="hardAlpha" operator="out"/>
<feColorMatrix type="matrix" values="0 0 0 0 0 0 0 0 0 0 0 0 0 0 0 0 0 0 0.25 0"/>
<feBlend mode="normal" in2="BackgroundImageFix" result="effect1_dropShadow_250_137"/>
<feBlend mode="normal" in="SourceGraphic" in2="effect1_dropShadow_250_137" result="shape"/>
</filter>
<filter id="filter8_d_250_137" x="500.847" y="44.2256" width="30.0459" height="46.1848" filterUnits="userSpaceOnUse" color-interpolation-filters="sRGB">
<feFlood flood-opacity="0" result="BackgroundImageFix"/>
<feColorMatrix in="SourceAlpha" type="matrix" values="0 0 0 0 0 0 0 0 0 0 0 0 0 0 0 0 0 0 127 0" result="hardAlpha"/>
<feOffset dy="2"/>
<feGaussianBlur stdDeviation="2"/>
<feComposite in2="hardAlpha" operator="out"/>
<feColorMatrix type="matrix" values="0 0 0 0 0 0 0 0 0 0 0 0 0 0 0 0 0 0 0.25 0"/>
<feBlend mode="normal" in2="BackgroundImageFix" result="effect1_dropShadow_250_137"/>
<feBlend mode="normal" in="SourceGraphic" in2="effect1_dropShadow_250_137" result="shape"/>
</filter>
<linearGradient id="paint0_linear_250_137" x1="46.3813" y1="87.3928" x2="418.639" y2="394.579" gradientUnits="userSpaceOnUse">
<stop stop-color="#C4C4C4" stop-opacity="0.53"/>
<stop offset="1" stop-color="#C4C4C4" stop-opacity="0"/>
</linearGradient>
<linearGradient id="paint1_linear_250_137" x1="209" y1="111" x2="9.29904" y2="315.516" gradientUnits="userSpaceOnUse">
<stop stop-color="white" stop-opacity="0.53"/>
<stop offset="1" stop-color="white" stop-opacity="0"/>
</linearGradient>
<linearGradient id="paint2_linear_250_137" x1="347.391" y1="237.539" x2="620.534" y2="445.502" gradientUnits="userSpaceOnUse">
<stop offset="0.0199724" stop-color="#C4C4C4" stop-opacity="0.53"/>
<stop offset="1" stop-color="#C4C4C4" stop-opacity="0"/>
</linearGradient>
<linearGradient id="paint3_linear_250_137" x1="546.651" y1="334.291" x2="566.344" y2="350.424" gradientUnits="userSpaceOnUse">
<stop stop-color="#4096BC"/>
<stop offset="0.520833" stop-color="#8E4FF7"/>
<stop offset="1" stop-color="#15BE9C"/>
</linearGradient>
<linearGradient id="paint4_linear_250_137" x1="540.109" y1="341.635" x2="574.566" y2="339.75" gradientUnits="userSpaceOnUse">
<stop stop-color="#4096BC"/>
<stop offset="0.520833" stop-color="#8E4FF7"/>
<stop offset="1" stop-color="#15BE9C"/>
</linearGradient>
<linearGradient id="paint5_linear_250_137" x1="537.384" y1="343.208" x2="598.693" y2="335.423" gradientUnits="userSpaceOnUse">
<stop stop-color="#4096BC"/>
<stop offset="0.520833" stop-color="#8E4FF7"/>
<stop offset="1" stop-color="#15BE9C"/>
</linearGradient>
<linearGradient id="paint6_linear_250_137" x1="546.651" y1="333.871" x2="566.344" y2="350.004" gradientUnits="userSpaceOnUse">
<stop stop-color="#4096BC"/>
<stop offset="0.520833" stop-color="#8E4FF7"/>
<stop offset="1" stop-color="#15BE9C"/>
</linearGradient>
<linearGradient id="paint7_linear_250_137" x1="540.109" y1="341.215" x2="574.566" y2="339.33" gradientUnits="userSpaceOnUse">
<stop stop-color="#4096BC"/>
<stop offset="0.520833" stop-color="#8E4FF7"/>
<stop offset="1" stop-color="#15BE9C"/>
</linearGradient>
<linearGradient id="paint8_linear_250_137" x1="537.384" y1="342.789" x2="598.693" y2="335.003" gradientUnits="userSpaceOnUse">
<stop stop-color="#4096BC"/>
<stop offset="0.520833" stop-color="#8E4FF7"/>
<stop offset="1" stop-color="#15BE9C"/>
</linearGradient>
<linearGradient id="paint9_linear_250_137" x1="149.335" y1="-165.7" x2="630.638" y2="209.425" gradientUnits="userSpaceOnUse">
<stop offset="0.290434" stop-color="#C4C4C4" stop-opacity="0.53"/>
<stop offset="1" stop-color="#C4C4C4" stop-opacity="0"/>
</linearGradient>
<linearGradient id="paint10_linear_250_137" x1="-92.8325" y1="223.907" x2="312.802" y2="531.905" gradientUnits="userSpaceOnUse">
<stop offset="0.150285" stop-color="#C4C4C4" stop-opacity="0.53"/>
<stop offset="1" stop-color="#C4C4C4" stop-opacity="0"/>
</linearGradient>
</defs>
</svg>
