<svg width="40" height="40" viewBox="0 0 40 40" fill="none" xmlns="http://www.w3.org/2000/svg">
<path d="M17.3995 0.481802C15.6816 -0.510029 13.4849 0.0785648 12.493 1.79647L0.481802 22.6005C-0.510029 24.3184 0.0785648 26.5151 1.79647 27.507L22.6005 39.5182C24.3185 40.51 26.5151 39.9214 27.507 38.2035L28.0383 37.2832C28.6334 36.2525 28.2802 34.9345 27.2495 34.3394L26.4654 33.8867C25.8677 33.5416 25.1034 33.7464 24.7583 34.3441C24.4132 34.9418 23.6489 35.1466 23.0512 34.8015L14.3536 29.7799C14.0449 29.6018 13.8906 29.5127 13.7622 29.4337C8.82916 26.4009 7.12533 20.0421 9.88108 14.949C9.95281 14.8165 10.0419 14.6622 10.2201 14.3536L13.9802 7.84087C15.022 6.03642 17.3293 5.41817 19.1338 6.45997L20.5347 7.26879C21.5654 7.86389 22.8834 7.51073 23.4785 6.47999C24.0736 5.44925 23.7205 4.13124 22.6897 3.53614L17.3995 0.481802Z" fill="white"/>
<path d="M30.155 7.84623C29.1243 7.25113 27.8063 7.60429 27.2112 8.63503C26.6161 9.66578 26.9692 10.9838 28 11.5789L30.78 13.1839C33.3461 14.6655 34.2253 17.9468 32.7438 20.5129L28.6157 27.6629C28.0206 28.6936 28.3738 30.0116 29.4045 30.6067C30.4353 31.2018 31.7533 30.8487 32.3484 29.8179L39.5182 17.3995C40.51 15.6816 39.9214 13.4849 38.2035 12.493L30.155 7.84623Z" fill="white" fill-opacity="0.5"/>
</svg>
