<svg width="139" height="36" viewBox="0 0 139 36" fill="none" xmlns="http://www.w3.org/2000/svg">
<path d="M15.6595 0.433622C14.1134 -0.459026 12.1364 0.0707083 11.2437 1.61682L0.433622 20.3405C-0.459026 21.8866 0.0707083 23.8636 1.61682 24.7563L20.3405 35.5664C21.8866 36.459 23.8636 35.9293 24.7563 34.3832L25.2345 33.5549C25.7701 32.6272 25.4522 31.441 24.5245 30.9054L23.8189 30.498C23.2809 30.1874 22.5931 30.3718 22.2825 30.9097C21.9719 31.4476 21.284 31.632 20.7461 31.3214L12.9182 26.8019C12.6405 26.6416 12.5016 26.5614 12.386 26.4903C7.94624 23.7608 6.4128 18.0379 8.89297 13.4541C8.95753 13.3348 9.0377 13.1959 9.19806 12.9182L12.5822 7.05678C13.5198 5.43278 15.5964 4.87635 17.2204 5.81397L18.4812 6.54191C19.4089 7.0775 20.5951 6.75966 21.1307 5.83199C21.6663 4.90432 21.3484 3.71812 20.4208 3.18253L15.6595 0.433622Z" fill="white"/>
<path d="M27.1395 7.06161C26.2119 6.52602 25.0256 6.84386 24.4901 7.77153C23.9545 8.6992 24.2723 9.8854 25.2 10.421L27.702 11.8655C30.0115 13.1989 30.8028 16.1521 29.4694 18.4616L25.7542 24.8966C25.2186 25.8243 25.5364 27.0105 26.4641 27.5461C27.3918 28.0816 28.578 27.7638 29.1136 26.8361L35.5664 15.6595C36.459 14.1134 35.9293 12.1364 34.3832 11.2437L27.1395 7.06161Z" fill="white" fill-opacity="0.5"/>
<path d="M50.93 24H48.29V9.25H53.03C54.1633 9.25 55.12 9.46667 55.9 9.9C56.6867 10.3267 57.2833 10.91 57.69 11.65C58.1033 12.3833 58.31 13.2033 58.31 14.11C58.31 15.0233 58.1033 15.86 57.69 16.62C57.2767 17.38 56.6733 17.99 55.88 18.45C55.0933 18.9033 54.1433 19.13 53.03 19.13H50.93V24ZM50.93 18.29L49.74 17.04H52.74C53.3533 17.04 53.8767 16.9233 54.31 16.69C54.7433 16.45 55.0733 16.1133 55.3 15.68C55.5333 15.24 55.65 14.7167 55.65 14.11C55.65 13.5033 55.5367 12.9967 55.31 12.59C55.09 12.1767 54.7633 11.8667 54.33 11.66C53.8967 11.4533 53.3667 11.35 52.74 11.35H49.74L50.93 10.04V18.29ZM63.5225 24.22C62.7292 24.22 62.0325 24.0967 61.4325 23.85C60.8325 23.5967 60.3625 23.2333 60.0225 22.76C59.6825 22.2867 59.5125 21.7167 59.5125 21.05C59.5125 20.3233 59.7092 19.7267 60.1025 19.26C60.5025 18.7867 61.0392 18.4233 61.7125 18.17C62.3858 17.91 63.1325 17.7433 63.9525 17.67C65.1658 17.55 66.0125 17.4367 66.4925 17.33C66.9792 17.2167 67.2225 17.0367 67.2225 16.79C67.2225 16.7833 67.2225 16.78 67.2225 16.78C67.2225 16.7733 67.2225 16.77 67.2225 16.77C67.2225 16.3033 67.0125 15.9433 66.5925 15.69C66.1725 15.4367 65.5792 15.31 64.8125 15.31C64.0058 15.31 63.3858 15.4533 62.9525 15.74C62.5258 16.02 62.3125 16.4667 62.3125 17.08H59.7125C59.7125 16.2467 59.9325 15.5433 60.3725 14.97C60.8192 14.39 61.4292 13.95 62.2025 13.65C62.9758 13.35 63.8525 13.2 64.8325 13.2C65.7458 13.2 66.5825 13.3367 67.3425 13.61C68.1025 13.8833 68.7125 14.2967 69.1725 14.85C69.6325 15.4033 69.8625 16.0933 69.8625 16.92C69.8625 17.06 69.8625 17.2 69.8625 17.34C69.8625 17.48 69.8625 17.62 69.8625 17.76V21.76C69.8625 22.0133 69.8692 22.2633 69.8825 22.51C69.9025 22.75 69.9392 22.9667 69.9925 23.16C70.0592 23.3733 70.1392 23.5533 70.2325 23.7C70.3258 23.8467 70.3992 23.9467 70.4525 24H67.8525C67.8058 23.9533 67.7392 23.8633 67.6525 23.73C67.5725 23.59 67.4992 23.43 67.4325 23.25C67.3658 23.05 67.3158 22.8367 67.2825 22.61C67.2492 22.3767 67.2325 22.12 67.2325 21.84L67.7525 22.2C67.5525 22.6067 67.2458 22.9633 66.8325 23.27C66.4258 23.57 65.9392 23.8033 65.3725 23.97C64.8058 24.1367 64.1892 24.22 63.5225 24.22ZM64.1625 22.15C64.7092 22.15 65.2158 22.0567 65.6825 21.87C66.1492 21.6833 66.5258 21.3967 66.8125 21.01C67.0992 20.6167 67.2425 20.1133 67.2425 19.5V18.08L67.8825 18.8C67.4558 18.96 66.9425 19.0933 66.3425 19.2C65.7425 19.3 65.1358 19.38 64.5225 19.44C63.7358 19.5133 63.1425 19.65 62.7425 19.85C62.3492 20.05 62.1525 20.3767 62.1525 20.83C62.1525 21.27 62.3192 21.6 62.6525 21.82C62.9858 22.04 63.4892 22.15 64.1625 22.15ZM72.6428 28.56C72.3295 28.56 72.0495 28.5433 71.8028 28.51C71.5561 28.4833 71.4028 28.4567 71.3428 28.43V26.38C71.4295 26.42 71.5761 26.45 71.7828 26.47C71.9961 26.4967 72.2161 26.51 72.4428 26.51C72.8095 26.51 73.1261 26.4367 73.3928 26.29C73.6661 26.1433 73.8995 25.94 74.0928 25.68C74.2861 25.4267 74.4395 25.13 74.5528 24.79L74.7828 24.12L71.1228 13.38H73.8728L76.3828 22.24H76.0628L78.5128 13.38H81.2128L77.4928 24.65C77.2328 25.43 76.9161 26.1133 76.5428 26.7C76.1761 27.2867 75.6861 27.7433 75.0728 28.07C74.4595 28.3967 73.6495 28.56 72.6428 28.56ZM94.5298 18.69C94.5298 19.3167 94.4132 19.9533 94.1798 20.6C93.9465 21.2467 93.5898 21.8467 93.1098 22.4C92.6365 22.9467 92.0365 23.3867 91.3098 23.72C90.5832 24.0533 89.7298 24.22 88.7498 24.22C87.4232 24.22 86.2898 23.8967 85.3498 23.25C84.4165 22.5967 83.7032 21.7 83.2098 20.56C82.7232 19.42 82.4798 18.11 82.4798 16.63C82.4798 15.1433 82.7232 13.83 83.2098 12.69C83.7032 11.55 84.4165 10.6567 85.3498 10.01C86.2898 9.36333 87.4232 9.04 88.7498 9.04C89.8498 9.04 90.7898 9.25 91.5698 9.67C92.3498 10.09 92.9732 10.63 93.4398 11.29C93.9065 11.95 94.2198 12.64 94.3798 13.36C94.4798 13.78 94.5298 14.18 94.5298 14.56H91.8798C91.8798 14.3667 91.8665 14.1667 91.8398 13.96C91.7665 13.4533 91.5965 12.9933 91.3298 12.58C91.0698 12.16 90.7232 11.83 90.2898 11.59C89.8565 11.3433 89.3432 11.22 88.7498 11.22C88.0432 11.22 87.4198 11.4167 86.8798 11.81C86.3465 12.2033 85.9265 12.8 85.6198 13.6C85.3132 14.4 85.1598 15.41 85.1598 16.63C85.1598 17.8367 85.3132 18.8433 85.6198 19.65C85.9265 20.4567 86.3465 21.06 86.8798 21.46C87.4198 21.86 88.0432 22.06 88.7498 22.06C89.2565 22.06 89.7032 21.9667 90.0898 21.78C90.4765 21.5933 90.8032 21.3433 91.0698 21.03C91.3365 20.71 91.5365 20.35 91.6698 19.95C91.8098 19.55 91.8798 19.13 91.8798 18.69H94.5298ZM104.258 24V20.17C104.258 20.01 104.258 19.81 104.258 19.57C104.258 19.33 104.258 19.0867 104.258 18.84C104.258 18.5933 104.258 18.39 104.258 18.23C104.258 17.35 104.085 16.6767 103.738 16.21C103.398 15.7367 102.815 15.5 101.988 15.5C101.435 15.5 100.961 15.61 100.568 15.83C100.181 16.0433 99.8846 16.3433 99.678 16.73C99.4713 17.1167 99.368 17.5633 99.368 18.07L98.408 17.56C98.408 16.7133 98.598 15.9633 98.978 15.31C99.3646 14.65 99.898 14.1333 100.578 13.76C101.258 13.3867 102.038 13.2 102.918 13.2C104.205 13.2 105.188 13.5833 105.868 14.35C106.548 15.11 106.888 16.17 106.888 17.53C106.888 17.8767 106.888 18.29 106.888 18.77C106.888 19.2433 106.888 19.7767 106.888 20.37V24H104.258ZM96.738 24V8.37H99.368V24H96.738ZM113.073 24.22C112.28 24.22 111.583 24.0967 110.983 23.85C110.383 23.5967 109.913 23.2333 109.573 22.76C109.233 22.2867 109.063 21.7167 109.063 21.05C109.063 20.3233 109.26 19.7267 109.653 19.26C110.053 18.7867 110.59 18.4233 111.263 18.17C111.937 17.91 112.683 17.7433 113.503 17.67C114.717 17.55 115.563 17.4367 116.043 17.33C116.53 17.2167 116.773 17.0367 116.773 16.79C116.773 16.7833 116.773 16.78 116.773 16.78C116.773 16.7733 116.773 16.77 116.773 16.77C116.773 16.3033 116.563 15.9433 116.143 15.69C115.723 15.4367 115.13 15.31 114.363 15.31C113.557 15.31 112.937 15.4533 112.503 15.74C112.077 16.02 111.863 16.4667 111.863 17.08H109.263C109.263 16.2467 109.483 15.5433 109.923 14.97C110.37 14.39 110.98 13.95 111.753 13.65C112.527 13.35 113.403 13.2 114.383 13.2C115.297 13.2 116.133 13.3367 116.893 13.61C117.653 13.8833 118.263 14.2967 118.723 14.85C119.183 15.4033 119.413 16.0933 119.413 16.92C119.413 17.06 119.413 17.2 119.413 17.34C119.413 17.48 119.413 17.62 119.413 17.76V21.76C119.413 22.0133 119.42 22.2633 119.433 22.51C119.453 22.75 119.49 22.9667 119.543 23.16C119.61 23.3733 119.69 23.5533 119.783 23.7C119.877 23.8467 119.95 23.9467 120.003 24H117.403C117.357 23.9533 117.29 23.8633 117.203 23.73C117.123 23.59 117.05 23.43 116.983 23.25C116.917 23.05 116.867 22.8367 116.833 22.61C116.8 22.3767 116.783 22.12 116.783 21.84L117.303 22.2C117.103 22.6067 116.797 22.9633 116.383 23.27C115.977 23.57 115.49 23.8033 114.923 23.97C114.357 24.1367 113.74 24.22 113.073 24.22ZM113.713 22.15C114.26 22.15 114.767 22.0567 115.233 21.87C115.7 21.6833 116.077 21.3967 116.363 21.01C116.65 20.6167 116.793 20.1133 116.793 19.5V18.08L117.433 18.8C117.007 18.96 116.493 19.0933 115.893 19.2C115.293 19.3 114.687 19.38 114.073 19.44C113.287 19.5133 112.693 19.65 112.293 19.85C111.9 20.05 111.703 20.3767 111.703 20.83C111.703 21.27 111.87 21.6 112.203 21.82C112.537 22.04 113.04 22.15 113.713 22.15ZM121.805 24V13.38H124.405V24H121.805ZM123.115 11.42C122.688 11.42 122.315 11.3067 121.995 11.08C121.682 10.8467 121.525 10.5233 121.525 10.11C121.525 9.70333 121.682 9.38667 121.995 9.16C122.315 8.93333 122.688 8.82 123.115 8.82C123.535 8.82 123.902 8.93333 124.215 9.16C124.528 9.38667 124.685 9.70333 124.685 10.11C124.685 10.5233 124.528 10.8467 124.215 11.08C123.902 11.3067 123.535 11.42 123.115 11.42ZM134.521 24V19.29C134.521 19.0233 134.521 18.79 134.521 18.59C134.521 18.3833 134.521 18.1967 134.521 18.03C134.521 17.55 134.451 17.12 134.311 16.74C134.178 16.3533 133.945 16.05 133.611 15.83C133.285 15.61 132.831 15.5 132.251 15.5C131.745 15.5 131.295 15.6233 130.901 15.87C130.508 16.11 130.198 16.4433 129.971 16.87C129.751 17.29 129.641 17.7767 129.641 18.33L128.751 17.78C128.751 16.8933 128.951 16.1067 129.351 15.42C129.758 14.7267 130.301 14.1833 130.981 13.79C131.661 13.3967 132.415 13.2 133.241 13.2C134.095 13.2 134.811 13.3667 135.391 13.7C135.978 14.0333 136.418 14.5067 136.711 15.12C137.011 15.7333 137.161 16.4533 137.161 17.28C137.161 17.6 137.161 17.96 137.161 18.36C137.161 18.76 137.161 19.1533 137.161 19.54V24H134.521ZM127.011 24V13.38H129.641V24H127.011Z" fill="white"/>
</svg>
