<svg width="40" height="35" viewBox="0 0 40 35" fill="none" xmlns="http://www.w3.org/2000/svg">
<path d="M12.7622 5.05855C13.0474 4.93154 13.3333 5.16772 13.3333 5.47989V24.8756C13.3333 25.1061 13.174 25.3024 12.9576 25.3818C12.8735 25.4126 12.7936 25.4459 12.7167 25.4818L8.79998 27.3883C6.06665 28.7257 3.81665 27.6159 3.81665 24.9126V11.0692C3.81665 10.1728 4.56665 9.06305 5.49998 8.60777L12.7167 5.07931C12.7317 5.07229 12.7469 5.06537 12.7622 5.05855Z" fill="#350069"/>
<path d="M24.6947 8.74907C24.8797 8.8273 25 9.0087 25 9.20961V28.4196C25 28.7754 24.6389 29.0173 24.3098 28.882L16.5598 25.6946C16.3724 25.6175 16.25 25.4349 16.25 25.2322V5.93319C16.25 5.57528 16.615 5.33328 16.9447 5.47265L24.6947 8.74907Z" fill="#E8C466"/>
<path opacity="0.23" d="M36.6666 9.23375V23.0772C36.6666 23.9736 35.9166 25.0833 34.9833 25.5386L28.6364 28.6438C28.3042 28.8063 27.9166 28.5645 27.9166 28.1947V8.90607C27.9166 8.71484 28.0257 8.54035 28.1976 8.45659L31.6833 6.75814C34.4166 5.42074 36.6666 6.53049 36.6666 9.23375Z" fill="#350069"/>
</svg>
